<?xml version='1.0' encoding='utf-8'?>
<svg width="100.089998mm" height="91.335532mm" viewBox="-14.128718 -4.692237 21.123822 19.276207" version="1.1" xmlns="http://www.w3.org/2000/svg">
  <g transform="scale(1,-1)" stroke-linecap="round">
    <g fill="none" stroke="rgb(0,0,0)" stroke-width="0.018994345210576108">
      <line x1="-5.175584" y1="-0.846845" x2="-5.175584" y2="-0.29965" />
      <line x1="-4.115175" y1="-1.336858" x2="-4.115175" y2="-0.789663" />
      <path d="M -5.259821,0.082262 Q -5.243961,0.176551 -5.216196,0.264543 Q -5.068837,0.731555 -4.343862,0.952783 Q -3.790574,1.121619 -3.373499,0.918366 Q -2.956425,0.715113 -2.788398,0.196873 Q -2.767378,0.132043 -2.752234,0.070499" />
      <path d="M -5.175584,-0.29965 Q -5.280952,0.061559 -5.280952,0.367036" />
      <path d="M -5.280952,0.367036 Q -5.280952,0.606513 -5.216196,0.811738 Q -5.068837,1.27875 -4.343862,1.499977 Q -3.790574,1.668814 -3.373499,1.465561 Q -2.956425,1.262307 -2.788398,0.744068 Q -2.713198,0.512131 -2.713198,0.32226" />
      <path d="M -2.713198,0.32226 Q -2.713198,0.019696 -2.904155,-0.176048 Q -3.214945,-0.494629 -4.115175,-0.789663" />
      <line x1="-6.015048" y1="-1.103009" x2="-6.015048" y2="-0.555814" />
      <line x1="-5.175584" y1="-0.846845" x2="-6.015048" y2="-1.103009" />
      <line x1="-5.175584" y1="-0.29965" x2="-6.015048" y2="-0.555814" />
      <path d="M -2.001556,-0.660066 Q -1.847669,-0.377551 -1.847669,-0.048209" />
      <path d="M -6.16595,-0.179522 Q -6.16595,-0.599435 -6.015048,-1.103009" />
      <path d="M -2.442181,-0.614768 Q -1.847669,-0.148345 -1.847669,0.498986" />
      <path d="M -1.847669,0.498986 Q -1.847669,0.752529 -1.938873,1.033826 Q -2.211918,1.875968 -2.916451,2.189821 Q -3.620985,2.503674 -4.584441,2.209673 Q -6.16595,1.727072 -6.16595,0.367672" />
      <path d="M -6.16595,0.367672 Q -6.16595,-0.05224 -6.015048,-0.555814" />
      <line x1="-5.335994" y1="-3.682378" x2="-5.335994" y2="-3.135183" />
      <path d="M -5.335994,-3.682378 Q -4.496221,-5.755054 -2.416688,-5.12048 Q -1.376905,-4.803189 -0.93212,-4.057262 Q -0.667581,-3.613617 -0.667581,-3.103192" />
      <path d="M -5.335994,-3.135183 Q -4.496221,-5.20786 -2.416688,-4.573286 Q -1.376905,-4.255994 -0.93212,-3.510067 Q -0.667581,-3.066423 -0.667581,-2.555997" />
      <path d="M -0.667581,-2.555997 Q -0.667581,-2.208212 -0.790394,-1.829424 Q -0.994423,-1.200144 -1.38004,-0.916098 Q -1.765657,-0.632052 -2.442181,-0.614768" />
      <line x1="-5.335994" y1="-3.135183" x2="-4.496529" y2="-2.879019" />
      <line x1="-3.435239" y1="-1.88196" x2="-3.435239" y2="-1.334765" />
      <path d="M -3.435239,-1.88196 Q -2.032985,-1.454059 -1.645916,-2.64788 Q -1.608126,-2.764435 -1.58661,-2.875355" />
      <path d="M -3.435239,-1.334765 Q -2.032985,-0.906864 -1.645916,-2.100685 Q -1.558163,-2.37134 -1.558163,-2.611608" />
      <path d="M -1.558163,-2.611608 Q -1.558163,-2.92176 -1.704387,-3.181278 Q -1.963888,-3.64184 -2.622102,-3.842695 Q -3.308945,-4.052287 -3.763371,-3.814663 Q -4.217797,-3.577039 -4.496529,-2.879019" />
      <line x1="-3.785211" y1="-1.998918" x2="-3.785211" y2="-1.451723" />
      <line x1="-3.435239" y1="-1.88196" x2="-3.785211" y2="-1.998918" />
      <line x1="-3.435239" y1="-1.334765" x2="-3.785211" y2="-1.451723" />
      <line x1="-3.890136" y1="-2.030936" x2="-3.890136" y2="-1.483741" />
      <line x1="-3.785211" y1="-1.998918" x2="-3.890136" y2="-2.030936" />
      <line x1="-3.785211" y1="-1.451723" x2="-3.890136" y2="-1.483741" />
      <line x1="-3.890136" y1="-2.030936" x2="-4.115175" y2="-1.336858" />
      <line x1="-3.890136" y1="-1.483741" x2="-4.115175" y2="-0.789663" />
      <line x1="2.061609" y1="3.893935" x2="2.061609" y2="4.44113" />
      <line x1="2.061609" y1="4.44113" x2="2.853378" y2="4.682739" />
      <line x1="5.040755" y1="-2.610903" x2="5.040755" y2="-2.063708" />
      <line x1="2.853378" y1="4.682739" x2="5.040755" y2="-2.063708" />
      <line x1="4.334846" y1="-2.826312" x2="4.334846" y2="-2.279118" />
      <line x1="5.040755" y1="-2.610903" x2="4.334846" y2="-2.826312" />
      <line x1="5.040755" y1="-2.063708" x2="4.334846" y2="-2.279118" />
      <line x1="4.127809" y1="-2.187754" x2="4.127809" y2="-1.640559" />
      <line x1="4.334846" y1="-2.826312" x2="4.127809" y2="-2.187754" />
      <line x1="4.334846" y1="-2.279118" x2="4.127809" y2="-1.640559" />
      <path d="M -0.413631,-0.434548 Q -0.413631,-0.952064 -0.222289,-1.542211 Q 0.176783,-2.773055 0.988211,-3.303457 Q 1.79964,-3.833859 2.810823,-3.525294 Q 3.325916,-3.368112 3.638206,-3.054155 Q 3.950496,-2.740198 4.127809,-2.187754" />
      <path d="M 2.874747,1.933199 Q 2.126147,2.528525 1.095897,2.214142 Q 0.122908,1.917233 -0.237223,1.039507 Q -0.413631,0.609558 -0.413631,0.112647" />
      <path d="M -0.413631,0.112647 Q -0.413631,-0.404869 -0.222289,-0.995016 Q 0.176783,-2.22586 0.988211,-2.756262 Q 1.79964,-3.286664 2.810823,-2.9781 Q 3.325916,-2.820918 3.638206,-2.50696 Q 3.950496,-2.193003 4.127809,-1.640559" />
      <line x1="2.646581" y1="2.089729" x2="2.061609" y2="3.893935" />
      <line x1="2.874747" y1="1.933199" x2="2.061609" y2="4.44113" />
      <path d="M 1.463497,0.985849 Q 2.102613,1.180876 2.65071,0.783698 Q 3.198806,0.38652 3.480857,-0.483398 Q 3.58135,-0.793344 3.615525,-1.073934" />
      <path d="M 0.492778,-0.21799 Q 0.518577,-0.027753 0.582193,0.147404 Q 0.814817,0.787903 1.463497,0.985849" />
      <path d="M 1.463497,1.533043 Q 2.102613,1.728071 2.65071,1.330893 Q 3.198806,0.933714 3.480857,0.063797 Q 3.633136,-0.405871 3.633136,-0.808133" />
      <path d="M 3.633136,-0.808133 Q 3.633136,-1.12715 3.537361,-1.403773 Q 3.32082,-2.0292 2.691237,-2.221319 Q 2.033024,-2.422174 1.465846,-2.030818 Q 0.898667,-1.639463 0.622614,-0.788042 Q 0.475178,-0.333312 0.475178,0.062625" />
      <path d="M 0.475178,0.062625 Q 0.475178,0.399949 0.582193,0.694599 Q 0.814817,1.335097 1.463497,1.533043" />
      <line x1="-10.42617" y1="-2.855872" x2="-11.265634" y2="-3.112036" />
      <path d="M -7.770842,-3.835538 Q -6.586005,-2.640023 -6.982069,-1.418457 Q -7.258123,-0.567037 -8.03312,-0.213672 Q -8.808117,0.139692 -9.771573,-0.154309 Q -11.936997,-0.815093 -11.265634,-3.112036" />
      <line x1="-7.770842" y1="-3.835538" x2="-8.562745" y2="-4.626342" />
      <path d="M -9.345664,-6.350096 Q -9.413925,-5.913277 -9.245851,-5.526366 Q -9.077776,-5.139454 -8.562745,-4.626342" />
      <line x1="-9.345664" y1="-6.350096" x2="-5.78755" y2="-5.26433" />
      <line x1="-5.78755" y1="-5.26433" x2="-5.526509" y2="-6.069449" />
      <line x1="-5.526509" y1="-6.069449" x2="-10.029013" y2="-7.443398" />
      <path d="M -9.051855,-4.023042 Q -9.921707,-4.929169 -10.122274,-5.636176 Q -10.322841,-6.343184 -10.029013,-7.443398" />
      <line x1="-9.051855" y1="-4.023042" x2="-8.330291" y2="-3.273995" />
      <path d="M -10.42617,-2.855872 Q -10.837857,-1.262797 -9.569158,-0.875651 Q -8.996804,-0.700996 -8.501216,-0.936222 Q -8.005628,-1.171449 -7.834603,-1.698937 Q -7.579559,-2.485559 -8.330291,-3.273995" />
      <line x1="-1.903459" y1="-5.728653" x2="-1.502808" y2="-5.606393" />
      <line x1="-1.502808" y1="-5.606393" x2="-0.409119" y2="-8.979617" />
      <line x1="-0.409119" y1="-8.979617" x2="-0.80977" y2="-9.101876" />
      <line x1="-0.80977" y1="-9.101876" x2="-1.903459" y2="-5.728653" />
      <line x1="0.815222" y1="-4.899042" x2="1.211106" y2="-4.778237" />
      <line x1="1.211106" y1="-4.778237" x2="2.304795" y2="-8.15146" />
      <line x1="2.304795" y1="-8.15146" x2="1.95184" y2="-8.259165" />
      <line x1="1.95184" y1="-8.259165" x2="1.848322" y2="-7.939886" />
      <path d="M 1.221791,-6.153007 Q 0.847491,-5.855344 0.332366,-6.012535 Q -0.154128,-6.16099 -0.334194,-6.599853 Q -0.514259,-7.038716 -0.326727,-7.617115 Q -0.127191,-8.232537 0.278523,-8.497738 Q 0.684237,-8.762939 1.189829,-8.608656 Q 1.447376,-8.530065 1.60352,-8.373087 Q 1.759665,-8.216108 1.848322,-7.939886" />
      <line x1="1.221791" y1="-6.153007" x2="0.815222" y2="-4.899042" />
      <path d="M 0.516166,-6.353085 Q 0.835724,-6.255571 1.109772,-6.45416 Q 1.383821,-6.652749 1.524846,-7.087708 Q 1.661368,-7.508779 1.553098,-7.821493 Q 1.444827,-8.134207 1.130036,-8.230266 Q 0.800929,-8.330693 0.51734,-8.135016 Q 0.233751,-7.939338 0.095724,-7.513627 Q -0.040798,-7.092556 0.075514,-6.772307 Q 0.191826,-6.452058 0.516166,-6.353085" />
      <line x1="-7.096113" y1="-11.020168" x2="-8.189802" y2="-7.646944" />
      <line x1="-8.189802" y1="-7.646944" x2="-7.793917" y2="-7.526139" />
      <line x1="-7.793917" y1="-7.526139" x2="-7.379847" y2="-8.80324" />
      <path d="M -6.838907,-10.600993 Q -6.422474,-10.931567 -5.912131,-10.775834 Q -5.416088,-10.624466 -5.238142,-10.170988 Q -5.060196,-9.71751 -5.255229,-9.115976 Q -5.44576,-8.528329 -5.842957,-8.273241 Q -6.240154,-8.018154 -6.736197,-8.169523 Q -7.237007,-8.322346 -7.379847,-8.80324" />
      <line x1="-6.838907" y1="-10.600993" x2="-6.738392" y2="-10.911008" />
      <line x1="-6.738392" y1="-10.911008" x2="-7.096113" y2="-11.020168" />
      <path d="M -6.695486,-8.553736 Q -6.361613,-8.451854 -6.079665,-8.650573 Q -5.797717,-8.849293 -5.656692,-9.284251 Q -5.523168,-9.696074 -5.642613,-10.014739 Q -5.762058,-10.333403 -6.086382,-10.432371 Q -6.401174,-10.528431 -6.675222,-10.329841 Q -6.94927,-10.131252 -7.087295,-9.705549 Q -7.225319,-9.279847 -7.117798,-8.964821 Q -7.010277,-8.649795 -6.695486,-8.553736" />
      <line x1="-3.227108" y1="-7.174991" x2="-2.440972" y2="-9.599641" />
      <line x1="-2.440972" y1="-9.599641" x2="-2.798693" y2="-9.708801" />
      <line x1="-2.798693" y1="-9.708801" x2="-2.908214" y2="-9.37101" />
      <path d="M -4.609926,-9.651303 Q -4.512409,-9.95207 -4.236882,-10.066311 Q -3.961355,-10.180551 -3.598868,-10.069937 Q -3.322224,-9.985519 -3.164445,-9.825501 Q -3.006667,-9.665483 -2.908214,-9.37101" />
      <line x1="-4.609926" y1="-9.651303" x2="-5.216031" y2="-7.781916" />
      <line x1="-5.216031" y1="-7.781916" x2="-4.820147" y2="-7.661111" />
      <line x1="-4.820147" y1="-7.661111" x2="-4.263552" y2="-9.377795" />
      <path d="M -3.177397,-8.670076 Q -3.057376,-9.040251 -3.170633,-9.32143 Q -3.28389,-9.60261 -3.593915,-9.697214 Q -3.832395,-9.769987 -4.012716,-9.682634 Q -4.193037,-9.595282 -4.263552,-9.377795" />
      <line x1="-3.177397" y1="-8.670076" x2="-3.622977" y2="-7.295792" />
      <line x1="-3.622977" y1="-7.295792" x2="-3.227108" y2="-7.174991" />
      <line x1="-2.933692" y1="-6.043031" x2="-2.533041" y2="-5.920771" />
      <line x1="-2.533041" y1="-5.920771" x2="-2.375514" y2="-6.406626" />
      <line x1="-2.375514" y1="-6.406626" x2="-2.776165" y2="-6.528886" />
      <line x1="-2.776165" y1="-6.528886" x2="-2.933692" y2="-6.043031" />
      <line x1="-2.621373" y1="-6.99015" x2="-2.225489" y2="-6.869345" />
      <line x1="-2.225489" y1="-6.869345" x2="-1.439353" y2="-9.293995" />
      <line x1="-1.439353" y1="-9.293995" x2="-1.835237" y2="-9.4148" />
      <line x1="-1.835237" y1="-9.4148" x2="-2.621373" y2="-6.99015" />
      <path d="M 6.934813,-8.743407 C 6.896079,-8.592777 6.835855,-8.464219 6.765844,-8.362894 C 6.705299,-8.276179 6.642086,-8.210922 6.576205,-8.167125 C 6.447606,-8.079026 6.279542,-8.045327 6.151704,-8.05334 C 6.086203,-8.057599 6.021179,-8.069577 5.95663,-8.089274 C 5.742698,-8.154556 5.596718,-8.276276 5.518691,-8.454435 C 5.440664,-8.632593 5.441097,-8.843336 5.519991,-9.086664 C 5.595404,-9.319257 5.715579,-9.483629 5.880516,-9.579781 C 6.045453,-9.675932 6.233965,-9.691649 6.446054,-9.626929 C 6.613886,-9.575715 6.746729,-9.488481 6.844582,-9.365226 C 6.942436,-9.241971 6.989366,-9.102305 6.985372,-8.946228" />
      <line x1="6.934813" y1="-8.743407" x2="5.933388" y2="-9.048993" />
      <path d="M 6.603618,-9.062721 C 6.593265,-9.199578 6.514319,-9.290518 6.366779,-9.33554 C 6.304079,-9.354673 6.248646,-9.360284 6.20048,-9.352372 C 6.103811,-9.339418 6.038195,-9.26051 5.995154,-9.187931 C 5.973802,-9.150207 5.953214,-9.103894 5.933388,-9.048993" />
      <line x1="6.603618" y1="-9.062721" x2="6.985372" y2="-8.946228" />
      <line x1="5.857992" y1="-8.797712" x2="6.452763" y2="-8.616217" />
      <path d="M 5.857992,-8.797712 C 5.812462,-8.569767 5.874534,-8.429907 6.044208,-8.37813 C 6.224194,-8.321672 6.36661,-8.412028 6.452763,-8.616217" />
      <path d="M -9.532688,-13.883524 C -9.521986,-14.086888 -9.572025,-14.179456 -9.724922,-14.228263 C -9.82267,-14.258091 -9.912721,-14.24133 -9.995074,-14.177982 C -10.077428,-14.114633 -10.141519,-14.012286 -10.187347,-13.87094 C -10.290024,-13.554257 -10.236239,-13.363837 -10.025993,-13.29968 C -9.946694,-13.275482 -9.879771,-13.27718 -9.825223,-13.304774 C -9.770675,-13.332368 -9.716962,-13.390199 -9.664083,-13.478268" />
      <line x1="-9.532688" y1="-13.883524" x2="-9.161992" y2="-13.770405" />
      <path d="M -9.293386,-13.365149 Q -9.398899,-13.105374 -9.620527,-13.00784 Q -9.842155,-12.910307 -10.121557,-12.995567 Q -10.456287,-13.097711 -10.575503,-13.358239 Q -10.694718,-13.618768 -10.57464,-13.989123 Q -10.458039,-14.34875 -10.209681,-14.491213 Q -9.961324,-14.633676 -9.629359,-14.532376 Q -9.358259,-14.449649 -9.231756,-14.244409 Q -9.105252,-14.039169 -9.161992,-13.770405" />
      <line x1="-9.293386" y1="-13.365149" x2="-9.664083" y2="-13.478268" />
      <line x1="-7.870186" y1="-12.335102" x2="-7.400305" y2="-13.784338" />
      <line x1="-7.400305" y1="-13.784338" x2="-7.787598" y2="-13.902521" />
      <line x1="-7.787598" y1="-13.902521" x2="-7.843288" y2="-13.730758" />
      <path d="M -8.879174,-13.751931 Q -8.80173,-13.990788 -8.627689,-14.082197 Q -8.453649,-14.173605 -8.215742,-14.101008 Q -7.928037,-14.013214 -7.843288,-13.730758" />
      <line x1="-8.879174" y1="-13.751931" x2="-9.20635" y2="-12.742836" />
      <line x1="-9.20635" y1="-12.742836" x2="-8.819057" y2="-12.624652" />
      <line x1="-8.819057" y1="-12.624652" x2="-8.517116" y2="-13.555917" />
      <path d="M -7.963367,-13.360403 Q -7.921602,-13.489219 -7.982127,-13.59322 Q -8.042653,-13.697221 -8.183736,-13.740273 Q -8.43271,-13.816248 -8.517116,-13.555917" />
      <line x1="-7.963367" y1="-13.360403" x2="-8.257479" y2="-12.453286" />
      <line x1="-8.257479" y1="-12.453286" x2="-7.870186" y2="-12.335102" />
      <line x1="-7.274112" y1="-13.282794" x2="-6.895122" y2="-13.167144" />
      <path d="M -6.456627,-12.9537 C -6.349642,-12.953746 -6.30869,-12.974183 -6.288324,-13.032113 C -6.257862,-13.120205 -6.350628,-13.208364 -6.52991,-13.26215 C -6.640565,-13.295916 -6.720939,-13.302746 -6.771031,-13.282637 C -6.821123,-13.262529 -6.862487,-13.224031 -6.895122,-13.167144" />
      <line x1="-6.456627" y1="-12.9537" x2="-6.963864" y2="-12.955125" />
      <path d="M -6.13918,-12.320062 C -6.192755,-12.167318 -6.290782,-12.065004 -6.433261,-12.01312 C -6.575741,-11.961235 -6.747493,-11.965964 -6.948517,-12.027308 C -7.138472,-12.085272 -7.274248,-12.174386 -7.355846,-12.294649 C -7.437444,-12.414911 -7.45417,-12.549291 -7.406022,-12.69779 C -7.385862,-12.75997 -7.35783,-12.808928 -7.321925,-12.844664 C -7.284925,-12.878899 -7.262149,-12.905749 -7.215032,-12.92117 C -7.192238,-12.928961 -7.173399,-12.935501 -7.158512,-12.940789 C -7.143626,-12.946078 -7.123812,-12.949371 -7.099069,-12.95067 C -7.074327,-12.951968 -7.057226,-12.953139 -7.047767,-12.954182 C -7.038308,-12.955226 -7.02242,-12.955784 -7.000104,-12.955858 C -6.977787,-12.955931 -6.965707,-12.955687 -6.963864,-12.955125" />
      <line x1="-6.13918" y1="-12.320062" x2="-6.512641" y2="-12.434024" />
      <path d="M -6.86403,-12.59729 C -6.922736,-12.597507 -6.963776,-12.592825 -6.98715,-12.583243 C -7.010524,-12.573661 -7.026851,-12.554557 -7.036133,-12.525931 C -7.06447,-12.445371 -6.99038,-12.363275 -6.855565,-12.323366 C -6.67114,-12.267088 -6.556832,-12.303974 -6.512641,-12.434024" />
      <line x1="-6.86403" y1="-12.59729" x2="-6.330008" y2="-12.584744" />
      <path d="M -7.274112,-13.282794 C -7.15863,-13.60147 -6.871279,-13.690742 -6.412059,-13.55061 C -6.166264,-13.477448 -5.998913,-13.347979 -5.94352,-13.218877 C -5.886167,-13.087027 -5.883099,-12.97168 -5.918434,-12.860254 C -5.979345,-12.67239 -6.116536,-12.580554 -6.330008,-12.584744" />
      <line x1="-5.50643" y1="-11.646238" x2="-5.290649" y2="-11.580392" />
      <line x1="-5.290649" y1="-11.580392" x2="-5.209724" y2="-11.829986" />
      <line x1="-5.209724" y1="-11.829986" x2="-5.425505" y2="-11.895832" />
      <line x1="-5.425505" y1="-11.895832" x2="-5.169681" y2="-12.684862" />
      <path d="M -4.905172,-12.769305 Q -4.960664,-12.795081 -4.991093,-12.804366 Q -5.068546,-12.828001 -5.103451,-12.804738 Q -5.138356,-12.781476 -5.169681,-12.684862" />
      <line x1="-4.905172" y1="-12.769305" x2="-4.819899" y2="-13.032309" />
      <path d="M -5.52391,-12.905023 Q -5.413399,-13.245867 -5.034409,-13.130217 Q -4.904384,-13.09054 -4.819899,-13.032309" />
      <line x1="-5.52391" y1="-12.905023" x2="-5.812798" y2="-12.014015" />
      <line x1="-5.812798" y1="-12.014015" x2="-6.00368" y2="-12.072263" />
      <line x1="-6.00368" y1="-12.072263" x2="-6.084605" y2="-11.822669" />
      <line x1="-6.084605" y1="-11.822669" x2="-5.893723" y2="-11.764421" />
      <line x1="-5.893723" y1="-11.764421" x2="-6.019895" y2="-11.375274" />
      <line x1="-6.019895" y1="-11.375274" x2="-5.632602" y2="-11.257091" />
      <line x1="-5.632602" y1="-11.257091" x2="-5.50643" y2="-11.646238" />
      <path d="M -4.378552,-11.243077 Q -4.721584,-11.347754 -4.851428,-11.612999 Q -4.981272,-11.878245 -4.865542,-12.235185 Q -4.749813,-12.592126 -4.486835,-12.737501 Q -4.223857,-12.882875 -3.87806,-12.777355 Q -3.537792,-12.673521 -3.404744,-12.408772 Q -3.271696,-12.144023 -3.384816,-11.795133 Q -3.504025,-11.42746 -3.765621,-11.281663 Q -4.027216,-11.135866 -4.378552,-11.243077" />
      <path d="M -4.277459,-11.545503 Q -4.117006,-11.49654 -3.980233,-11.594895 Q -3.84346,-11.69325 -3.773848,-11.907952 Q -3.707717,-12.111916 -3.76459,-12.269363 Q -3.821464,-12.42681 -3.976388,-12.474085 Q -4.134068,-12.522202 -4.272658,-12.422927 Q -4.411248,-12.323653 -4.47825,-12.117002 Q -4.545251,-11.910351 -4.490195,-11.751985 Q -4.435139,-11.593619 -4.277459,-11.545503" />
      <line x1="-2.868977" y1="-12.401593" x2="-3.338858" y2="-10.952358" />
      <line x1="-3.338858" y1="-10.952358" x2="-2.954329" y2="-10.835018" />
      <line x1="-2.954329" y1="-10.835018" x2="-2.896031" y2="-11.014827" />
      <path d="M -2.076468,-10.776535 Q -2.2595,-10.596444 -2.552743,-10.685928 Q -2.679995,-10.724759 -2.757439,-10.800004 Q -2.834883,-10.875249 -2.896031,-11.014827" />
      <path d="M -1.087859,-10.731454 Q -1.156602,-10.519434 -1.320758,-10.439756 Q -1.484914,-10.360077 -1.708998,-10.428457 Q -1.980098,-10.511184 -2.076468,-10.776535" />
      <line x1="-1.087859" y1="-10.731454" x2="-0.755463" y2="-11.75665" />
      <line x1="-0.755463" y1="-11.75665" x2="-1.142756" y2="-11.874833" />
      <line x1="-1.142756" y1="-11.874833" x2="-1.45601" y2="-10.908676" />
      <path d="M -1.900507,-11.150488 C -1.959703,-10.973776 -1.89196,-10.833413 -1.727163,-10.784968 C -1.600339,-10.744423 -1.490862,-10.795324 -1.45601,-10.908676" />
      <line x1="-1.900507" y1="-11.150488" x2="-1.618578" y2="-12.020031" />
      <line x1="-1.618578" y1="-12.020031" x2="-2.005871" y2="-12.138215" />
      <line x1="-2.005871" y1="-12.138215" x2="-2.319125" y2="-11.172058" />
      <path d="M -2.763613,-11.413867 C -2.822808,-11.237154 -2.755076,-11.096795 -2.590278,-11.04835 C -2.463454,-11.007805 -2.353977,-11.058705 -2.319125,-11.172058" />
      <line x1="-2.763613" y1="-11.413867" x2="-2.481684" y2="-12.28341" />
      <line x1="-2.481684" y1="-12.28341" x2="-2.868977" y2="-12.401593" />
      <line x1="-1.016342" y1="-9.686218" x2="-0.629049" y2="-9.568035" />
      <line x1="-0.629049" y1="-9.568035" x2="-0.520281" y2="-9.903506" />
      <line x1="-0.520281" y1="-9.903506" x2="-0.907573" y2="-10.021689" />
      <line x1="-0.907573" y1="-10.021689" x2="-1.016342" y2="-9.686218" />
      <line x1="-0.851883" y1="-10.193452" x2="-0.46459" y2="-10.075269" />
      <line x1="-0.46459" y1="-10.075269" x2="0.00529" y2="-11.524504" />
      <line x1="0.00529" y1="-11.524504" x2="-0.382002" y2="-11.642688" />
      <line x1="-0.382002" y1="-11.642688" x2="-0.851883" y2="-10.193452" />
      <line x1="-0.138154" y1="-9.975656" x2="1.023724" y2="-9.621107" />
      <line x1="1.023724" y1="-9.621107" x2="1.122052" y2="-9.924376" />
      <line x1="1.122052" y1="-9.924376" x2="0.662187" y2="-10.990777" />
      <line x1="0.662187" y1="-10.990777" x2="1.420167" y2="-10.759477" />
      <line x1="1.420167" y1="-10.759477" x2="1.518495" y2="-11.062747" />
      <line x1="1.518495" y1="-11.062747" x2="0.281928" y2="-11.440088" />
      <line x1="0.281928" y1="-11.440088" x2="0.1836" y2="-11.136818" />
      <line x1="0.1836" y1="-11.136818" x2="0.648994" y2="-10.068731" />
      <line x1="0.648994" y1="-10.068731" x2="-0.039826" y2="-10.278926" />
      <line x1="-0.039826" y1="-10.278926" x2="-0.138154" y2="-9.975656" />
      <path d="M 1.88312,-10.040146 Q 1.46676,-10.246836 1.59119,-10.63061 Q 1.654712,-10.826528 1.817921,-10.907969 Q 1.98113,-10.989411 2.185843,-10.926942 Q 2.434817,-10.850967 2.572528,-10.581842" />
      <line x1="1.88312" y1="-10.040146" x2="2.029334" y2="-9.966035" />
      <path d="M 1.803802,-9.908043 C 1.788658,-9.83008 1.795811,-9.770876 1.825261,-9.730432 C 1.85471,-9.689987 1.917385,-9.655133 2.013283,-9.625869 C 2.162667,-9.580285 2.253021,-9.605801 2.284347,-9.702418 C 2.296433,-9.742137 2.29874,-9.774055 2.274257,-9.807244 C 2.247416,-9.841459 2.24569,-9.855309 2.192661,-9.883755 C 2.167663,-9.897285 2.150988,-9.906797 2.142637,-9.912293 C 2.134285,-9.917789 2.114235,-9.927839 2.082486,-9.942443 C 2.050737,-9.957046 2.03302,-9.964911 2.029334,-9.966035" />
      <line x1="1.803802" y1="-9.908043" x2="1.430341" y2="-10.022005" />
      <path d="M 2.662473,-9.584075 Q 2.518029,-9.138571 1.906662,-9.325131 Q 1.303588,-9.50916 1.430341,-10.022005" />
      <line x1="2.662473" y1="-9.584075" x2="2.923518" y2="-10.389205" />
      <path d="M 2.923518,-10.389205 Q 2.955715,-10.48851 3.069471,-10.539329" />
      <line x1="3.069471" y1="-10.539329" x2="3.084262" y2="-10.58495" />
      <line x1="3.084262" y1="-10.58495" x2="2.663776" y2="-10.713262" />
      <path d="M 2.663776,-10.713262 Q 2.602113,-10.673092 2.572528,-10.581842" />
      <line x1="2.427921" y1="-10.14524" x2="2.394855" y2="-10.043253" />
      <path d="M 2.394855,-10.043253 Q 2.350133,-10.083446 2.246437,-10.138677" />
      <line x1="2.246437" y1="-10.138677" x2="2.121479" y2="-10.203354" />
      <path d="M 2.427921,-10.14524 Q 2.481,-10.308948 2.429492,-10.421991 Q 2.377985,-10.535035 2.231363,-10.579777 Q 2.13454,-10.609323 2.062603,-10.579662 Q 1.990665,-10.550001 1.964561,-10.469488 Q 1.937587,-10.386293 1.972588,-10.325473 Q 2.007589,-10.264653 2.121479,-10.203354" />
      <path d="M 3.686502,-10.238963 Q 3.892694,-10.406093 4.166567,-10.32252 Q 4.434902,-10.240637 4.543364,-9.965696 Q 4.651826,-9.690755 4.545666,-9.36333 Q 4.436897,-9.027859 4.187036,-8.866687 Q 3.937175,-8.705515 3.66884,-8.787398 Q 3.394967,-8.870971 3.32539,-9.125199" />
      <line x1="3.686502" y1="-10.238963" x2="3.734361" y2="-10.386571" />
      <line x1="3.734361" y1="-10.386571" x2="3.347068" y2="-10.504754" />
      <line x1="3.347068" y1="-10.504754" x2="2.712728" y2="-8.548284" />
      <line x1="2.712728" y1="-8.548284" x2="3.100021" y2="-8.430101" />
      <line x1="3.100021" y1="-8.430101" x2="3.32539" y2="-9.125199" />
      <path d="M 3.961363,-9.183299 Q 4.093985,-9.282921 4.159246,-9.484204 Q 4.223635,-9.682796 4.173242,-9.836791 Q 4.12285,-9.990786 3.979002,-10.034682 Q 3.832381,-10.079424 3.701576,-9.980721 Q 3.570771,-9.882018 3.503771,-9.675372 Q 3.439379,-9.476771 3.490208,-9.324121 Q 3.541036,-9.171471 3.684889,-9.127574 Q 3.828741,-9.083678 3.961363,-9.183299" />
      <line x1="4.430647" y1="-8.024058" x2="4.817939" y2="-7.905875" />
      <line x1="4.817939" y1="-7.905875" x2="5.452279" y2="-9.862344" />
      <line x1="5.452279" y1="-9.862344" x2="5.064986" y2="-9.980527" />
      <line x1="5.064986" y1="-9.980527" x2="4.430647" y2="-8.024058" />
      <line x1="-10.387689" y1="-7.552849" x2="-12.644083" y2="-0.593539" />
      <path d="M -12.644083,-0.593539 A 2.2560058893750004,2.188638952429361 -180.0 0,0 -14.119221,-3.338036" />
      <line x1="-12.314106" y1="-8.905484" x2="-11.750008" y2="-10.645312" />
      <line x1="-11.750008" y1="-10.645312" x2="-11.185909" y2="-12.385139" />
      <line x1="5.33541" y1="-3.519696" x2="5.899509" y2="-5.259524" />
      <line x1="5.899509" y1="-5.259524" x2="6.463607" y2="-6.999351" />
      <path d="M -11.750008,-10.645312 A 1.041666666666667,1.010561298997991 3.2782432217265045e-15 0,1 -11.021123,-9.660142" />
      <path d="M -11.750008,-10.645312 A 1.041666666666667,1.010561298997991 -180.0 0,0 -10.571046,-11.048298" />
      <path d="M 5.899509,-5.259524 A 1.041666666666667,1.010561298997991 0.0 0,1 5.170624,-6.244694" />
      <path d="M 5.899509,-5.259524 A 1.041666666666667,1.010561298997991 180.0 0,0 4.720547,-4.856537" />
      <line x1="-11.750008" y1="-10.645312" x2="-7.984379" y2="-9.496222" />
      <line x1="5.899509" y1="-5.259524" x2="2.133881" y2="-6.408613" />
      <line x1="1.463497" y1="0.985849" x2="1.463497" y2="1.533043" />
      <path d="M -1.847669,-0.048209 L -1.847669,0.498986" />
      <path d="M -6.16595,-0.179522 L -6.16595,0.367672" />
      <path d="M -0.667581,-3.103192 L -0.667581,-2.555997" />
      <path d="M -0.413631,-0.434548 L -0.413631,0.112647" />
    </g>
  </g>
</svg>